<?xml version="1.0" encoding="UTF-8"?>
<svg width="1082px" height="963px" viewBox="0 0 1082 963" version="1.1" xmlns="http://www.w3.org/2000/svg" xmlns:xlink="http://www.w3.org/1999/xlink">
    <!-- Generator: Sketch 45.2 (43514) - http://www.bohemiancoding.com/sketch -->
    <title>Page 1</title>
    <desc>Created with Sketch.</desc>
    <defs>
        <polygon id="path-1" points="0 963 1155.871 963 1155.871 0.539 0 0.539"></polygon>
        <polygon id="path-3" points="0.762250985 0.495385481 33.5597664 0.495385481 33.5597664 33.3407895 0.762250985 33.3407895"></polygon>
        <path d="M0.297194455,0.9477 C0.121594854,1.96122775 0.031,2.99406011 0.031,4.042 L0.031,44.278 C0.508410582,45.8174136 1.01130146,47.3021244 1.54132899,48.7327 L88.8775883,48.7327 C89.435922,46.5913557 89.7857002,44.3967029 89.912,42.171 L90.944,14.532 L70.5673532,0.9477 L0.297194455,0.9477 L0.297194455,0.9477 Z" id="path-5"></path>
        <polygon id="path-7" points="12.5496262 178.944968 0.782373785 179.162779 0.782373785 0.0117989565 12.5496262 0.0117989565 12.5496262 178.944968"></polygon>
        <polygon id="path-9" points="12.3691262 180.096388 0.601873785 180.314199 0.601873785 0.809798957 12.3691262 0.809798957"></polygon>
        <polygon id="path-11" points="12.3805262 178.781509 0.614133658 178.999304 0.614133658 0.229998957 12.3805262 0.229998957 12.3805262 178.781509"></polygon>
        <path d="M205.3393,46.9996656 C184.750002,18.9388775 151.532913,0.722 114.061,0.722 C51.576,0.722 0.921,51.376 0.921,113.861 C0.921,160.44165 29.0712238,200.447523 69.2874234,217.7952 L158.834415,217.7952 C177.455008,209.762956 193.488798,196.873173 205.3393,180.722334 L205.3393,46.9996656 L205.3393,46.9996656 Z" id="path-13"></path>
        <path d="M205.1903,47.2716656 C184.601002,19.2108775 151.383913,0.994 113.912,0.994 C51.427,0.994 0.773,51.648 0.773,114.133 C0.773,160.714008 28.9231008,200.720138 69.1395121,218.0676 L158.684488,218.0676 C177.305476,210.035384 193.339602,197.145441 205.1903,180.994334 L205.1903,47.2716656 L205.1903,47.2716656 Z" id="path-15"></path>
        <polygon id="path-17" points="0.984 60.884 155.718 60.884 155.718 0.601 0.984 0.601 0.984 60.884"></polygon>
        <path d="M176.5677,0.802 L0.082,0.802 L0.082,172.916 C0.082,180.044881 3.29375481,186.423488 8.34924369,190.6838 L164.271254,190.6838 C169.738221,187.057707 174.057473,181.839637 176.5677,175.69078 L176.5677,0.802 L176.5677,0.802 Z" id="path-19"></path>
        <path d="M0.082,0.802 L0.082,172.916 C0.082,185.743 10.48,196.141 23.307,196.141 L23.307,196.141 L146.128,196.141 C164.279,196.141 178.993,181.428 178.993,163.277 L178.993,163.277 L178.993,0.802 L0.082,0.802 Z" id="path-21"></path>
        <path d="M0.7961,92.804 L30.281,92.804 C48.3097775,92.804 64.8425212,86.7876007 77.7281,76.775653 L77.7281,0.884600538 L0.7961,0.274674108 L0.7961,92.804 L0.7961,92.804 Z" id="path-23"></path>
        <path d="M0.541509765,92.7723961 C40.635735,91.6498579 72.771,60.7656905 72.771,22.832 L72.771,1.099 L0.5415,0.526355573 L0.5415,92.7723964 L0.541509765,92.7723961 Z" id="path-25"></path>
        <path d="M72.5463839,0.1881 L71.196,155.679 C72.922,240.241 19.44,264.449 19.44,264.449 L0.7653,264.449 L0.7653,299.42144 C19.9628928,299.334444 38.6983121,299.250258 56.732,299.171 C56.73,299.431 56.721,299.449 56.721,299.449 L374.278,299.449 C374.278,236.449 316.879,172.486 251.879,156.54 L251.879,155.632 L251.879,0.1881 L72.5463839,0.1881 L72.5463839,0.1881 Z" id="path-27"></path>
        <polygon id="path-29" points="0.8488 0.213641438 33.8788 0.213641438 33.8788 224.8522 0.8488 224.8522"></polygon>
        <path d="M167.3884,95.1743691 C156.091752,70.4525783 129.005,69.476 129.005,69.476 C132.456,5.623 96.35,0.445 96.35,0.445 C93.869,0.232 91.487,0.13 89.206,0.13 C35.951,0.128 36.015,55.67 36.015,55.67 C16.5702149,58.0037528 5.89600382,69.4519879 0.0364,81.3247438 L0.0364,108.8824 L167.3884,108.8824 L167.3884,95.1743691 Z" id="path-31"></path>
        <path d="M145.517,39.0407792 C136.998966,16.7887373 108.279525,0.422 74.162,0.422 C33.334,0.422 0.238,23.859 0.238,52.772 C0.238,74.8705681 19.5731483,93.7717327 46.917466,101.453 L101.406121,101.453 C122.871051,95.4232684 139.401099,82.4797007 145.517,66.5029487 L145.517,39.0407792 L145.517,39.0407792 Z" id="path-33"></path>
        <path d="M0.539,8.612 L0.539,0.991 L283.261,0.991 C285.303,0.991 286.958,2.646 286.958,4.689 L286.958,8.612 L0.539,8.612 L0.539,8.612 Z" id="path-35"></path>
        <path d="M115.561764,0.5032 C49.5340038,15.7876696 0.319,74.9677183 0.319,145.643 L267.5884,145.643 L267.5884,55.075169 C246.912638,28.1105855 217.225013,8.4194372 183.026915,0.5032 L115.561764,0.5032 L115.561764,0.5032 Z" id="path-37"></path>
        <path d="M70.3133012,0.4911 C73.3618653,12.3672728 74.983,24.815808 74.983,37.643 L0.5023,37.643 L0.5023,0.4911 L70.3133012,0.4911 L70.3133012,0.4911 Z" id="path-39"></path>
        <path d="M115.275398,0.5032 C49.2470038,15.7876696 0.032,74.9677183 0.032,145.643 L267.3016,145.643 L267.3016,55.0753372 C246.625908,28.1106674 216.93839,8.41945367 182.740548,0.5032 L115.275398,0.5032 L115.275398,0.5032 Z" id="path-41"></path>
        <polygon id="path-43" points="0.244606797 0.539 274.073129 0.539 274.073129 225.700643 0.244606797 225.700643 0.244606797 0.539"></polygon>
    </defs>
    <g id="Page-1" stroke="none" stroke-width="1" fill="none" fill-rule="evenodd">
        <g transform="translate(0.000000, -1.000000)">
            <g id="Group-5" transform="translate(5.000000, 214.461000)" fill="#EAEDEC">
                <path d="M242.8012,332.0711 L0.7362,332.0711 L0.7362,35.9881 C0.7362,16.4171 16.6022,0.5511 36.1732,0.5511 L207.3652,0.5511 C226.9362,0.5511 242.8012,16.4171 242.8012,35.9881 L242.8012,332.0711 Z" id="Fill-1"></path>
                <path d="M214.8565,66.7655 C211.0645,72.7775 197.0845,70.7715 183.6295,62.2855 C170.1745,53.8005 162.3415,42.0475 166.1325,36.0355 C169.9245,30.0245 183.9045,32.0295 197.3595,40.5155 C210.8145,49.0015 218.6475,60.7535 214.8565,66.7655" id="Fill-3"></path>
            </g>
            <polygon id="Fill-6" fill="#008C98" points="0.925 545.919 250.035 545.919 250.035 536.726 0.925 536.726"></polygon>
            <g id="Group-22" transform="translate(0.000000, 0.461000)">
                <path d="M276.2274,825.9207 C276.2274,789.7427 305.5554,760.4137 341.7344,760.4137 C377.9124,760.4137 407.2404,789.7427 407.2404,825.9207 L276.2274,825.9207 Z" id="Fill-7" fill="#ECC020"></path>
                <mask id="mask-2" fill="white">
                    <use xlink:href="#path-1"></use>
                </mask>
                <g id="Clip-10"></g>
                <polygon id="Fill-9" fill="#564257" mask="url(#mask-2)" points="908.512 835.923 927.992 835.923 927.992 611.342 908.512 611.342"></polygon>
                <path d="M922.589,868.5466 C922.589,838.9006 946.622,814.8676 976.268,814.8676 C1005.914,814.8676 1029.946,838.9006 1029.946,868.5466" id="Fill-11" fill="#ECC020" mask="url(#mask-2)"></path>
                <path d="M928.5971,844.4207 C928.5971,829.9187 916.8411,818.1627 902.3391,818.1627 C887.8371,818.1627 876.0821,829.9187 876.0821,844.4207" id="Fill-12" fill="#ECC020" mask="url(#mask-2)"></path>
                <path d="M1031.1508,872.5759 C1031.1508,862.5699 1023.0398,854.4589 1013.0338,854.4589 C1003.0278,854.4589 994.9168,862.5699 994.9168,872.5759" id="Fill-13" fill="#0093B5" mask="url(#mask-2)"></path>
                <polygon id="Fill-14" fill="#0093B5" mask="url(#mask-2)" points="317.184 869.104 326.811 869.104 326.811 758.111 317.184 758.111"></polygon>
                <polygon id="Fill-15" fill="#0093B5" mask="url(#mask-2)" points="417.379 869.104 423.364 869.104 423.364 800.104 417.379 800.104"></polygon>
                <path d="M472.5729,770.8449 C472.5729,800.2259 448.7549,824.0439 419.3739,824.0439 C389.9929,824.0439 366.1749,800.2259 366.1749,770.8449 C366.1749,741.4639 389.9929,717.6459 419.3739,717.6459 C448.7549,717.6459 472.5729,741.4639 472.5729,770.8449" id="Fill-16" fill="#0093B5" mask="url(#mask-2)"></path>
                <path d="M390.6172,874.9034 C390.6172,863.2664 400.0512,853.8324 411.6882,853.8324 C423.3252,853.8324 432.7592,863.2664 432.7592,874.9034" id="Fill-17" fill="#0093B5" mask="url(#mask-2)"></path>
                <path d="M425.7003,875.141 C425.7003,867.791 431.6583,861.833 439.0083,861.833 C446.3583,861.833 452.3163,867.791 452.3163,875.141" id="Fill-18" fill="#0093B5" mask="url(#mask-2)"></path>
                <path d="M718.4904,412.8879 L718.4904,412.8879 C718.5714,399.1299 729.9184,387.9649 743.7074,388.0769 L974.7754,386.7159 C988.5644,386.8269 999.7804,398.1759 999.6994,411.9339 L999.6994,411.9339 C999.6194,425.6919 988.2714,436.8569 974.4834,436.7449 L743.4144,438.1059 C729.6254,437.9939 718.4094,426.6459 718.4904,412.8879" id="Fill-19" fill="#F7C19F" mask="url(#mask-2)"></path>
                <path d="M723.3746,382.0456 L716.6926,305.1706 C715.4576,288.5866 697.5886,276.4686 676.9846,278.2406 L676.9846,278.2406 C656.3796,280.0126 640.5326,295.0306 641.7676,311.6146 L649.0066,395.7346 C649.0066,395.7346 647.7696,431.1806 672.0216,440.3736 C698.2746,450.3266 845.5736,438.7666 924.2946,431.6106 L923.5606,387.5706 L723.3746,382.0456 Z" id="Fill-20" fill="#006868" mask="url(#mask-2)"></path>
                <path d="M638.3195,503.5422 L340.9115,509.0472 C340.9115,509.0472 327.7995,217.0152 605.0055,205.9062 L717.3075,280.7742 C717.3075,280.7742 605.5575,398.4362 638.3195,503.5422" id="Fill-21" fill="#00ABC1" mask="url(#mask-2)"></path>
            </g>
            <g id="Group-36" transform="translate(510.000000, 216.461000)">
                <path d="M158.2051,62.7643 C158.2051,89.8793 136.2241,111.8603 109.1091,111.8603 C81.9941,111.8603 60.0131,89.8793 60.0131,62.7643 C60.0131,35.6493 81.9941,13.6683 109.1091,13.6683 C136.2241,13.6683 158.2051,35.6493 158.2051,62.7643" id="Fill-23" fill="#38D0D3"></path>
                <path d="M171.7113,62.7643 C171.7113,97.3383 143.6833,125.3663 109.1093,125.3663 C74.5343,125.3663 46.5063,97.3383 46.5063,62.7643 C46.5063,28.1903 74.5343,0.1623 109.1093,0.1623 C143.6833,0.1623 171.7113,28.1903 171.7113,62.7643" id="Fill-25" fill="#38D0D3"></path>
                <polygon id="Fill-27" fill="#38D0D3" points="0.845 136.19 68.906 136.19 68.906 127.519 0.845 127.519"></polygon>
                <polygon id="Fill-29" fill="#38D0D3" points="0.845 192.233 68.906 192.233 68.906 138.728 0.845 138.728"></polygon>
                <g id="Group-33" transform="translate(16.000000, 148.000000)">
                    <mask id="mask-4" fill="white">
                        <use xlink:href="#path-3"></use>
                    </mask>
                    <g id="Clip-32"></g>
                    <path d="M16.9448,25.3517 L16.9458,25.3827 C17.2828,25.3657 17.6258,25.3797 17.9578,25.3277 C19.1388,25.1407 19.6358,24.4007 19.2118,23.2897 C18.5868,21.6487 17.8658,20.0437 17.1848,18.4247 C17.1548,18.3517 17.1378,18.2517 17.0438,18.2467 C16.9198,18.2397 16.9048,18.3597 16.8668,18.4427 C16.7158,18.7817 16.5658,19.1207 16.4188,19.4607 C15.8878,20.6897 15.3438,21.9117 14.8308,23.1477 C14.3278,24.3577 14.8268,25.1957 16.1238,25.3467 C16.3938,25.3787 16.6708,25.3517 16.9448,25.3517 M29.6648,24.6377 C33.0608,19.5667 32.9938,11.1417 26.7978,5.7597 C20.9708,0.6987 12.2228,0.9957 6.7358,6.5217 C1.1718,12.1237 1.6418,20.0807 4.5568,24.4057 C4.5988,24.3257 4.6418,24.2597 4.6698,24.1877 C6.6318,19.1187 8.5938,14.0507 10.5518,8.9807 C10.7758,8.4017 11.0648,7.8707 11.5268,7.4437 C12.2508,6.7747 13.2448,6.7617 13.9798,7.4127 C14.4388,7.8187 14.7368,8.3307 14.9718,8.8847 C15.5258,10.1917 16.0728,11.5007 16.6248,12.8087 C16.7468,13.0957 16.8798,13.3777 17.0398,13.7357 C17.1268,13.5767 17.1688,13.5117 17.1988,13.4417 C17.8028,12.0517 18.4028,10.6597 19.0078,9.2697 C19.2398,8.7377 19.4558,8.1987 19.8098,7.7287 C20.7428,6.4937 22.1918,6.5077 23.0868,7.7667 C23.3218,8.0977 23.5028,8.4577 23.6468,8.8347 C25.1348,12.7377 26.6208,16.6417 28.1068,20.5457 C28.6158,21.8847 29.1258,23.2237 29.6648,24.6377 M17.3898,31.6787 C17.7488,31.7117 18.3218,31.5767 18.9018,31.5617 C18.9978,31.5587 19.0948,31.5427 19.1898,31.5287 C22.6888,31.0137 25.6258,29.4427 28.0498,26.8727 C28.4128,26.4877 28.4808,26.1767 28.2898,25.6847 C26.7588,21.7287 25.2558,17.7627 23.7428,13.8007 C23.1558,12.2637 22.5728,10.7257 21.9728,9.1937 C21.8698,8.9307 21.7568,8.5687 21.4538,8.5477 C21.1288,8.5257 21.0598,8.9207 20.9008,9.1517 C20.8468,9.2307 20.8118,9.3227 20.7728,9.4117 C19.9068,11.4087 19.0468,13.4087 18.1688,15.4007 C18.0058,15.7707 18.0118,16.0877 18.1708,16.4577 C19.0448,18.4867 19.9258,20.5137 20.7478,22.5647 C21.6168,24.7357 20.5038,26.6247 18.1948,26.9797 C17.4578,27.0937 16.7118,27.0667 15.9748,27.0067 C15.1378,26.9397 14.3558,26.6707 13.7668,26.0327 C12.7888,24.9757 12.7838,23.7477 13.2928,22.5087 C14.1438,20.4357 15.0538,18.3867 15.9438,16.3297 C16.0428,16.1017 16.1248,15.8927 16.0158,15.6377 C15.1158,13.5317 14.2288,11.4207 13.3238,9.3167 C13.2138,9.0597 13.0948,8.7057 12.7738,8.7017 C12.4408,8.6967 12.3658,9.0647 12.2338,9.3167 C12.1818,9.4167 12.1398,9.5217 12.0988,9.6277 C10.0288,14.9817 7.9608,20.3377 5.8818,25.6897 C5.7478,26.0367 5.7818,26.2917 6.0298,26.5677 C9.0058,29.8777 12.7108,31.5877 17.3898,31.6787 M33.5578,16.9507 C33.6698,25.8577 26.2498,33.3707 17.1068,33.3407 C7.9978,33.3107 0.6048,25.6987 0.7648,16.6167 C0.9168,7.9587 8.0958,0.3807 17.4148,0.4967 C26.3438,0.6087 33.6978,8.0337 33.5578,16.9507" id="Fill-31" fill="#FFFFFF" mask="url(#mask-4)"></path>
                </g>
                <path d="M116.6841,98.5538 L116.6841,98.5538 C91.5741,98.5538 78.3281,87.8038 71.0311,64.2778 L71.0311,24.0418 C71.0311,10.8298 85.4291,0.0208 103.0251,0.0208 L130.3411,0.0208 C147.9391,0.0208 162.3361,10.8298 162.3361,24.0418 L160.9121,62.1708 C159.8131,81.5378 141.7921,98.5538 116.6841,98.5538" id="Fill-34" fill="#F4AE80"></path>
            </g>
            <g id="Group-39" transform="translate(581.000000, 236.461000)">
                <mask id="mask-6" fill="white">
                    <use xlink:href="#path-5"></use>
                </mask>
                <g id="Clip-38"></g>
                <polygon id="Fill-37" fill="#882D28" mask="url(#mask-6)" points="-14.7375 18.5797 97.9165 48.7327 103.0225 0.9477"></polygon>
            </g>
            <g id="Group-49" transform="translate(596.000000, 324.461000)">
                <g id="Group-42" transform="translate(8.000000, 1.000000)">
                    <mask id="mask-8" fill="white">
                        <use xlink:href="#path-7"></use>
                    </mask>
                    <g id="Clip-41"></g>
                    <path d="M3.336,330.3289 L1.838,330.2919 C1.209,330.2759 0.736,328.5929 0.786,326.5519 L8.761,3.6959 C8.812,1.6539 9.367,-0.0031 9.996,0.0119 L11.494,0.0489 C12.123,0.0649 12.596,1.7479 12.546,3.7889 L4.571,326.6449 C4.52,328.6869 3.965,330.3449 3.336,330.3289" id="Fill-40" fill="#FFFFFF" mask="url(#mask-8)"></path>
                </g>
                <g id="Group-45">
                    <mask id="mask-10" fill="white">
                        <use xlink:href="#path-9"></use>
                    </mask>
                    <g id="Clip-44"></g>
                    <path d="M3.1555,331.1269 L1.6575,331.0899 C1.0285,331.0739 0.5555,329.3909 0.6055,327.3499 L8.5805,4.4939 C8.6315,2.4519 9.1865,0.7949 9.8155,0.8099 L11.3135,0.8469 C11.9425,0.8629 12.4155,2.5459 12.3655,4.5869 L4.3905,327.4429 C4.3395,329.4849 3.7845,331.1429 3.1555,331.1269" id="Fill-43" fill="#38D0D3" mask="url(#mask-10)"></path>
                </g>
                <g id="Group-48" transform="translate(17.000000, 1.000000)">
                    <mask id="mask-12" fill="white">
                        <use xlink:href="#path-11"></use>
                    </mask>
                    <g id="Clip-47"></g>
                    <path d="M3.1669,330.5471 L1.6689,330.5101 C1.0399,330.4941 0.5669,328.8111 0.6179,326.7701 L8.5919,3.9141 C8.6429,1.8721 9.1979,0.2151 9.8269,0.2301 L11.3249,0.2671 C11.9539,0.2831 12.4269,1.9661 12.3769,4.0071 L4.4019,326.8631 C4.3509,328.9051 3.7959,330.5631 3.1669,330.5471" id="Fill-46" fill="#38D0D3" mask="url(#mask-12)"></path>
                </g>
            </g>
            <g id="Group-70" transform="translate(282.000000, 101.461000)">
                <path d="M534.7026,466.3035 L193.0566,466.3035 C191.2906,466.3035 189.8596,464.8715 189.8596,463.1055 L189.8596,392.4335 L535.8126,392.4335 C537.1896,392.4335 538.3066,393.5495 538.3066,394.9275 L538.3066,462.6995 C538.3066,464.6905 536.6926,466.3035 534.7026,466.3035" id="Fill-50" fill="#1B0F22"></path>
                <path d="M551.6508,693.1637 L540.4548,428.4017 C539.0928,407.0497 520.6788,390.8437 499.3268,392.2057 L464.2688,394.4417 L508.2798,683.0797 L551.6508,693.1637 Z" id="Fill-52" fill="#1B0F22"></path>
                <path d="M644.4131,722.1648 L511.5641,719.0938 C510.0101,719.0608 508.7661,717.7608 508.7991,716.2068 L508.8361,714.5268 C508.8691,712.9728 510.1691,711.7278 511.7231,711.7618 L644.5721,714.8328 C646.1261,714.8668 647.3711,716.1658 647.3371,717.7198 L647.3001,719.3998 C647.2671,720.9548 645.9671,722.1988 644.4131,722.1648" id="Fill-54" fill="#1F1341"></path>
                <path d="M643.8788,717.3562 C643.8788,706.2332 636.5348,696.8822 625.3818,696.6402 L554.5588,695.0892 L551.3228,667.0282 L504.1008,667.7432 L509.2788,701.6762 C509.1268,708.6712 504.7668,714.1252 511.7618,714.2772 L643.8788,717.3752 L643.8788,717.3562 Z" id="Fill-56" fill="#009AA5"></path>
                <path d="M543.5535,679.5322 C543.3655,682.3712 540.9115,684.5202 538.0725,684.3322 C535.2345,684.1442 533.0845,681.6912 533.2725,678.8522 C533.4605,676.0132 535.9145,673.8642 538.7535,674.0512 C541.5925,674.2392 543.7415,676.6932 543.5535,679.5322" id="Fill-58" fill="#FFFFFF"></path>
                <path d="M397.8042,474.3154 L67.4482,474.3154 C62.7332,474.3154 58.9112,470.3084 58.9112,465.3644 L58.9112,392.6704 C58.9112,392.3694 59.1442,392.1254 59.4312,392.1254 L400.5872,392.1254 C404.3272,392.1254 407.3592,395.3044 407.3592,399.2254 L407.3592,464.2974 C407.3592,469.8304 403.0812,474.3154 397.8042,474.3154" id="Fill-60" fill="#32233B"></path>
                <path d="M274.2033,103.8496 L325.3383,103.8496 C326.0743,103.8496 326.6753,103.2476 326.6753,102.5126 L326.6753,72.8016 C326.6753,72.0666 326.0743,71.4646 325.3383,71.4646 L274.2033,71.4646 C273.4683,71.4646 272.8663,72.0666 272.8663,72.8016 L272.8663,102.5126 C272.8663,103.2476 273.4683,103.8496 274.2033,103.8496" id="Fill-62" fill="#F7C19F"></path>
                <path d="M286.9051,160.4736 L311.2991,160.4736 L311.2991,0.1616 L284.7101,0.1616 L284.7101,158.2786 C284.7101,159.4906 285.6931,160.4736 286.9051,160.4736" id="Fill-64" fill="#893A27"></path>
                <path d="M650.9089,343.0884 L635.7569,343.0884 C635.3819,343.0884 635.0759,342.7814 635.0759,342.4064 L635.0759,273.3064 C635.0759,272.9314 635.3819,272.6244 635.7569,272.6244 L650.9089,272.6244 C651.2839,272.6244 651.5909,272.9314 651.5909,273.3064 L651.5909,342.4064 C651.5909,342.7814 651.2839,343.0884 650.9089,343.0884" id="Fill-66" fill="#0099A5"></path>
                <path d="M227.2001,748.8608 C227.2001,811.3458 176.5461,861.9998 114.0611,861.9998 C51.5761,861.9998 0.9221,811.3458 0.9221,748.8608 C0.9221,686.3758 51.5761,635.7218 114.0611,635.7218 C176.5461,635.7218 227.2001,686.3758 227.2001,748.8608" id="Fill-68" fill="#A4BBC5"></path>
            </g>
            <g id="Group-73" transform="translate(282.000000, 736.461000)">
                <mask id="mask-14" fill="white">
                    <use xlink:href="#path-13"></use>
                </mask>
                <g id="Clip-72"></g>
                <path d="M205.3393,104.6562 C205.3393,167.1412 154.6853,217.7952 92.2003,217.7952 C29.7153,217.7952 -20.9387,167.1412 -20.9387,104.6562 C-20.9387,42.1712 29.7153,-8.4828 92.2003,-8.4828 C154.6853,-8.4828 205.3393,42.1712 205.3393,104.6562" id="Fill-71" fill="#6F909F" mask="url(#mask-14)"></path>
            </g>
            <g id="Group-80" transform="translate(324.000000, 733.461000)">
                <path d="M143.4766,91.7207 C143.4766,131.0797 111.5696,162.9857 72.2116,162.9857 C32.8526,162.9857 0.9456,131.0797 0.9456,91.7207 C0.9456,52.3617 32.8526,20.4557 72.2116,20.4557 C111.5696,20.4557 143.4766,52.3617 143.4766,91.7207" id="Fill-74" fill="#D2DEE3"></path>
                <path d="M109.1528,103.592 C109.1528,123.994 92.6138,140.534 72.2108,140.534 C51.8088,140.534 35.2698,123.994 35.2698,103.592 C35.2698,83.19 51.8088,66.65 72.2108,66.65 C92.6138,66.65 109.1528,83.19 109.1528,103.592" id="Fill-76" fill="#FFFFFF"></path>
                <path d="M715.0511,114.1331 C715.0511,176.6181 664.3971,227.2721 601.9121,227.2721 C539.4271,227.2721 488.7731,176.6181 488.7731,114.1331 C488.7731,51.6481 539.4271,0.9941 601.9121,0.9941 C664.3971,0.9941 715.0511,51.6481 715.0511,114.1331" id="Fill-78" fill="#A4BBC5"></path>
            </g>
            <g id="Group-83" transform="translate(812.000000, 733.461000)">
                <mask id="mask-16" fill="white">
                    <use xlink:href="#path-15"></use>
                </mask>
                <g id="Clip-82"></g>
                <path d="M205.1903,104.9286 C205.1903,167.4136 154.5363,218.0676 92.0513,218.0676 C29.5663,218.0676 -21.0877,167.4136 -21.0877,104.9286 C-21.0877,42.4436 29.5663,-8.2104 92.0513,-8.2104 C154.5363,-8.2104 205.1903,42.4436 205.1903,104.9286" id="Fill-81" fill="#6F909F" mask="url(#mask-16)"></path>
            </g>
            <g id="Group-90" transform="translate(493.000000, 629.461000)">
                <path d="M487.5908,220.8877 C487.5908,260.2467 455.6838,292.1527 416.3258,292.1527 C376.9668,292.1527 345.0598,260.2467 345.0598,220.8877 C345.0598,181.5287 376.9668,149.6227 416.3258,149.6227 C455.6838,149.6227 487.5908,181.5287 487.5908,220.8877" id="Fill-84" fill="#D2DEE3"></path>
                <path d="M453.267,220.8877 C453.267,241.2897 436.728,257.8297 416.325,257.8297 C395.923,257.8297 379.384,241.2897 379.384,220.8877 C379.384,200.4857 395.923,183.9457 416.325,183.9457 C436.728,183.9457 453.267,200.4857 453.267,220.8877" id="Fill-86" fill="#FFFFFF"></path>
                <path d="M163.7181,185.8842 L0.3371,185.8842 L0.3371,0.6432 L150.2321,0.6432 C157.6801,0.6432 163.7181,6.6802 163.7181,14.1292 L163.7181,185.8842 Z" id="Fill-88" fill="#A4BBC5"></path>
            </g>
            <g id="Group-93" transform="translate(501.000000, 754.461000)">
                <mask id="mask-18" fill="white">
                    <use xlink:href="#path-17"></use>
                </mask>
                <g id="Clip-92"></g>
                <polygon id="Fill-91" fill="#D2DEE3" mask="url(#mask-18)" points="0.984 68.309 166.125 68.309 166.125 0.601 0.984 0.601"></polygon>
            </g>
            <g id="Group-111" transform="translate(0.000000, 96.461000)">
                <path d="M711.1661,685.4428 L692.5871,429.7648 C687.8801,408.8928 667.1441,395.7888 646.2721,400.4958 L612.0041,408.2248 L667.4241,687.8698 L711.1661,685.4428 Z" id="Fill-94" fill="#32233B"></path>
                <path d="M742.9504,82.7072 C741.3714,92.9282 747.5454,102.6372 756.7394,104.3922 C765.9334,106.1472 774.6654,99.2832 776.2444,89.0622 C777.8234,78.8412 771.6494,69.1332 762.4554,67.3782 C753.2614,65.6232 744.5294,72.4862 742.9504,82.7072" id="Fill-96" fill="#F7C19F"></path>
                <path d="M884.1635,345.5248 L1007.4335,345.5248 C1007.8655,345.5248 1008.2165,345.1738 1008.2165,344.7408 L1008.2165,327.3238 C1008.2165,326.8908 1007.8655,326.5408 1007.4335,326.5408 L884.1635,326.5408 C883.7305,326.5408 883.3795,326.8908 883.3795,327.3238 L883.3795,344.7408 C883.3795,345.1738 883.7305,345.5248 884.1635,345.5248" id="Fill-98" fill="#6F909F"></path>
                <path d="M808.3427,725.1691 L675.5807,730.8751 C674.0277,730.9441 672.7007,729.7301 672.6317,728.1771 L672.5567,726.4981 C672.4877,724.9451 673.7027,723.6181 675.2557,723.5491 L808.0177,717.8421 C809.5707,717.7731 810.8977,718.9881 810.9667,720.5411 L811.0417,722.2201 C811.1107,723.7731 809.8957,725.1001 808.3427,725.1691" id="Fill-100" fill="#1F1341"></path>
                <path d="M807.8788,720.2312 C807.8788,709.0872 799.0058,700.3742 787.8618,700.8692 L713.9698,703.9702 L707.8988,634.7042 L656.6908,637.9582 L672.1628,713.6412 C672.4728,720.6312 668.6688,726.2762 675.6588,725.9652 L807.8788,720.2502 L807.8788,720.2312 Z" id="Fill-102" fill="#03AEBF"></path>
                <path d="M683.1597,652.0016 C683.1597,654.8466 680.8537,657.1536 678.0077,657.1536 C675.1627,657.1536 672.8567,654.8466 672.8567,652.0016 C672.8567,649.1566 675.1627,646.8496 678.0077,646.8496 C680.8537,646.8496 683.1597,649.1566 683.1597,652.0016" id="Fill-104" fill="#FFFFFF"></path>
                <polygon id="Fill-106" fill="#41484C" points="0 473.961 249.652 473.961 249.652 449.83 0 449.83"></polygon>
                <polygon id="Fill-108" fill="#41484C" points="351.1761 526.3801 240.9921 470.5911 249.8021 449.8411 352.5711 501.6241"></polygon>
                <path d="M952.1863,414.1178 C953.5643,414.1178 953.5663,411.9768 952.1863,411.9768 C950.8083,411.9768 950.8063,414.1178 952.1863,414.1178" id="Fill-109" fill="#008C98"></path>
                <path d="M723.1287,196.1412 L600.3067,196.1412 C587.4797,196.1412 577.0817,185.7432 577.0817,172.9162 L577.0817,0.8022 L755.9927,0.8022 L755.9927,163.2772 C755.9927,181.4272 741.2787,196.1412 723.1287,196.1412" id="Fill-110" fill="#DEA384"></path>
            </g>
            <g id="Group-117" transform="translate(577.000000, 96.461000)">
                <g id="Group-114">
                    <mask id="mask-20" fill="white">
                        <use xlink:href="#path-19"></use>
                    </mask>
                    <g id="Clip-113"></g>
                    <path d="M144.6647,190.6838 L24.0447,190.6838 C9.4707,190.6838 -2.3433,178.8688 -2.3433,164.2948 L-2.3433,7.3648 C-2.3433,0.7258 3.0387,-4.6552 9.6767,-4.6552 L164.5467,-4.6552 C171.1857,-4.6552 176.5677,0.7258 176.5677,7.3648 L176.5677,158.7808 C176.5677,176.4008 162.2837,190.6838 144.6647,190.6838" id="Fill-112" fill="#F7C19F" mask="url(#mask-20)"></path>
                </g>
                <mask id="mask-22" fill="white">
                    <use xlink:href="#path-21"></use>
                </mask>
                <g id="Clip-116"></g>
                <polygon id="Fill-115" fill="#DEA384" mask="url(#mask-22)" points="15.246 23.237 189.276 23.237 189.276 6.258 15.246 6.258"></polygon>
            </g>
            <g id="Group-140" transform="translate(561.000000, 68.461000)">
                <path d="M0.149,79.7678 L4.706,198.0328 C4.706,198.0328 11.606,270.7388 112.852,266.5178 C112.852,266.5178 188.274,262.9218 194.993,199.9868 L198.597,43.5578 L182.521,43.5578 C182.521,43.5578 191.172,177.3388 167.644,183.2768 C165.095,183.9208 97.77,178.8878 57.009,183.8728 C57.009,183.8728 16.082,208.6228 31.246,43.5578 L0.149,79.7678 Z" id="Fill-118" fill="#882D28"></path>
                <path d="M173.6712,106.046 L75.3502,106.046 C75.0882,106.046 74.8762,105.834 74.8762,105.573 L74.8762,95.05 C74.8762,94.788 75.0882,94.577 75.3502,94.577 L173.6712,94.577 C173.9322,94.577 174.1442,94.788 174.1442,95.05 L174.1442,105.573 C174.1442,105.834 173.9322,106.046 173.6712,106.046" id="Fill-120" fill="#F7AC85"></path>
                <path d="M83.2891,116.6129 C83.2891,120.4999 78.8541,123.6509 73.3841,123.6509 C67.9131,123.6509 63.4781,120.4999 63.4781,116.6129 C63.4781,112.7259 67.9131,109.5749 73.3841,109.5749 C78.8541,109.5749 83.2891,112.7259 83.2891,116.6129" id="Fill-122" fill="#F3836C"></path>
                <path d="M177.5498,117.395 C177.5498,121.282 173.1148,124.433 167.6448,124.433 C162.1738,124.433 157.7388,121.282 157.7388,117.395 C157.7388,113.508 162.1738,110.357 167.6448,110.357 C173.1148,110.357 177.5498,113.508 177.5498,117.395" id="Fill-124" fill="#F3836C"></path>
                <path d="M85.4756,100.5582 C85.4286,103.5982 82.9256,106.0242 79.8856,105.9762 C76.8456,105.9292 74.4196,103.4262 74.4666,100.3862 C74.5146,97.3462 77.0176,94.9202 80.0576,94.9682 C83.0976,95.0152 85.5226,97.5182 85.4756,100.5582" id="Fill-126" fill="#362654"></path>
                <path d="M174.1617,100.0477 C174.1147,103.0877 171.6117,105.5137 168.5717,105.4657 C165.5317,105.4187 163.1057,102.9157 163.1527,99.8757 C163.2007,96.8357 165.7037,94.4097 168.7437,94.4577 C171.7837,94.5047 174.2087,97.0077 174.1617,100.0477" id="Fill-128" fill="#362654"></path>
                <path d="M97.1614,84.2555 L34.2054,84.2555 C33.7554,84.2555 33.3874,83.8875 33.3874,83.4375 L33.3874,65.2555 C33.3874,64.8055 33.7554,64.4375 34.2054,64.4375 L97.1614,64.4375 C97.6114,64.4375 97.9794,64.8055 97.9794,65.2555 L97.9794,83.4375 C97.9794,83.8875 97.6114,84.2555 97.1614,84.2555" id="Fill-130" fill="#882D28"></path>
                <path d="M203.1481,84.2555 L140.1921,84.2555 C139.7421,84.2555 139.3741,83.8875 139.3741,83.4375 L139.3741,65.2555 C139.3741,64.8055 139.7421,64.4375 140.1921,64.4375 L203.1481,64.4375 C203.5981,64.4375 203.9661,64.8055 203.9661,65.2555 L203.9661,83.4375 C203.9661,83.8875 203.5981,84.2555 203.1481,84.2555" id="Fill-132" fill="#882D28"></path>
                <path d="M192.2248,35.7321 C192.2248,50.3851 180.3458,62.2641 165.6928,62.2641 C151.0398,62.2641 139.1608,50.3851 139.1608,35.7321 C139.1608,21.0791 151.0398,9.2001 165.6928,9.2001 C180.3458,9.2001 192.2248,21.0791 192.2248,35.7321" id="Fill-134" fill="#882D28"></path>
                <path d="M161.3078,27.1064 C161.3078,41.7594 149.4288,53.6384 134.7758,53.6384 C120.1228,53.6384 108.2438,41.7594 108.2438,27.1064 C108.2438,12.4534 120.1228,0.5744 134.7758,0.5744 C149.4288,0.5744 161.3078,12.4534 161.3078,27.1064" id="Fill-136" fill="#882D28"></path>
                <path d="M146.2816,96.8035 L13.4166,96.8035 L29.5536,3.5835 L220.7716,5.0985 L220.7716,26.8325 C220.7716,65.4765 187.4216,96.8035 146.2816,96.8035" id="Fill-138" fill="#FFE5C0"></path>
            </g>
            <g id="Group-147" transform="translate(677.000000, 72.461000)">
                <g id="Group-143">
                    <mask id="mask-24" fill="white">
                        <use xlink:href="#path-23"></use>
                    </mask>
                    <g id="Clip-142"></g>
                    <polygon id="Fill-141" fill="#FFFFFF" mask="url(#mask-24)" points="14.1451 106.1189 0.7961 98.4119 64.3791 -11.7161 77.7281 -4.0091"></polygon>
                </g>
                <g id="Group-146" transform="translate(32.000000, 0.000000)">
                    <mask id="mask-26" fill="white">
                        <use xlink:href="#path-25"></use>
                    </mask>
                    <g id="Clip-145"></g>
                    <polygon id="Fill-144" fill="#FFFFFF" mask="url(#mask-26)" points="13.8905 106.1189 0.5415 98.4119 64.1245 -11.7161 77.4735 -4.0091"></polygon>
                </g>
            </g>
            <path d="M1081.2777,853.91 C1081.2777,790.91 1023.8787,726.947 958.8787,711.001 L958.8787,710.093 L958.8787,530.613 C963.8787,473.663 916.0047,471.937 916.0047,471.937 C919.4557,408.084 883.3497,402.906 883.3497,402.906 C822.9477,397.729 823.0157,458.131 823.0157,458.131 C779.8717,463.308 779.9047,513.355 779.9047,513.355 L778.1957,710.14 C779.9217,794.702 726.4397,818.91 726.4397,818.91 L554.8787,818.91 L554.8787,696.286 C554.8787,635.885 519.3477,633.91 519.3477,633.91 L374.3837,633.91 C217.3387,633.91 225.2817,854.915 225.2817,854.915 C223.9217,856.276 545.3027,854.592 763.7317,853.632 C763.7297,853.893 763.7207,853.91 763.7207,853.91 L1081.2777,853.91 Z" id="Fill-148" fill="#D2DEE3"></path>
            <g id="Group-159" transform="translate(707.000000, 402.461000)">
                <g id="Group-152" transform="translate(0.000000, 152.000000)">
                    <mask id="mask-28" fill="white">
                        <use xlink:href="#path-27"></use>
                    </mask>
                    <g id="Clip-151"></g>
                    <polygon id="Fill-150" fill="#A4BBC5" mask="url(#mask-28)" points="280.4183 0.1881 0.7653 324.9821 448.8703 318.3761"></polygon>
                </g>
                <g id="Group-155" transform="translate(145.000000, 109.000000)">
                    <mask id="mask-30" fill="white">
                        <use xlink:href="#path-29"></use>
                    </mask>
                    <g id="Clip-154"></g>
                    <path d="M33.8788,0.2492 L33.8788,199.5292 L0.8488,224.8522 C0.8488,224.8522 10.8788,-3.0538 33.8788,0.2492" id="Fill-153" fill="#A4BBC5" mask="url(#mask-30)"></path>
                </g>
                <g id="Group-158" transform="translate(80.000000, 0.000000)">
                    <mask id="mask-32" fill="white">
                        <use xlink:href="#path-31"></use>
                    </mask>
                    <g id="Clip-157"></g>
                    <path d="M167.3884,39.5194 C167.3884,77.8274 129.9254,108.8824 83.7124,108.8824 C37.4994,108.8824 0.0364,77.8274 0.0364,39.5194 C0.0364,1.2114 37.4994,-29.8436 83.7124,-29.8436 C129.9254,-29.8436 167.3884,1.2114 167.3884,39.5194" id="Fill-156" fill="#A4BBC5" mask="url(#mask-32)"></path>
                </g>
            </g>
            <path d="M946.086,436.233 C946.086,465.146 912.989,488.584 872.162,488.584 C831.335,488.584 798.238,465.146 798.238,436.233 C798.238,407.32 831.335,383.882 872.162,383.882 C912.989,383.882 946.086,407.32 946.086,436.233" id="Fill-160" fill="#F87B79"></path>
            <g id="Group-164" transform="translate(798.000000, 383.461000)">
                <mask id="mask-34" fill="white">
                    <use xlink:href="#path-33"></use>
                </mask>
                <g id="Clip-163"></g>
                <path d="M145.517,49.102 C145.517,78.015 112.42,101.453 71.593,101.453 C30.766,101.453 -2.331,78.015 -2.331,49.102 C-2.331,20.189 30.766,-3.249 71.593,-3.249 C112.42,-3.249 145.517,20.189 145.517,49.102" id="Fill-162" fill="#D2DEE3" mask="url(#mask-34)"></path>
            </g>
            <g id="Group-183" transform="translate(347.000000, 294.461000)">
                <path d="M575.2215,136.5944 C575.2215,151.2094 563.3735,163.0574 548.7585,163.0574 C534.1435,163.0574 522.2955,151.2094 522.2955,136.5944 C522.2955,121.9794 534.1435,110.1314 548.7585,110.1314 C563.3735,110.1314 575.2215,121.9794 575.2215,136.5944" id="Fill-165" fill="#E7B446"></path>
                <path d="M581.8275,136.5944 C581.8275,151.2094 569.9795,163.0574 555.3645,163.0574 C540.7495,163.0574 528.9015,151.2094 528.9015,136.5944 C528.9015,121.9794 540.7495,110.1314 555.3645,110.1314 C569.9795,110.1314 581.8275,121.9794 581.8275,136.5944" id="Fill-167" fill="#FFC64B"></path>
                <path d="M476.3422,147.5248 L353.0722,147.5248 C352.6402,147.5248 352.2892,147.1738 352.2892,146.7408 L352.2892,129.3238 C352.2892,128.8908 352.6402,128.5408 353.0722,128.5408 L476.3422,128.5408 C476.7752,128.5408 477.1262,128.8908 477.1262,129.3238 L477.1262,146.7408 C477.1262,147.1738 476.7752,147.5248 476.3422,147.5248" id="Fill-169" fill="#6F909F"></path>
                <path d="M110.1242,133.1831 L110.1242,133.1831 C110.2052,119.4251 121.5522,108.2601 135.3412,108.3711 L366.4092,107.0111 C380.1982,107.1221 391.4142,118.4711 391.3332,132.2291 C391.2532,145.9871 379.9052,157.1521 366.1172,157.0401 L135.0482,158.4011 C121.2592,158.2891 110.0432,146.9411 110.1242,133.1831" id="Fill-171" fill="#F7C19F"></path>
                <path d="M372.2323,138.2244 C372.2323,143.5724 367.8963,147.9084 362.5483,147.9084 C357.2003,147.9084 352.8643,143.5724 352.8643,138.2244 C352.8643,132.8764 357.2003,128.5404 362.5483,128.5404 C367.8963,128.5404 372.2323,132.8764 372.2323,138.2244" id="Fill-173" fill="#96194B"></path>
                <path d="M157.3969,104.5427 L150.7149,27.6677 C149.4799,11.0837 131.6109,-1.0343 111.0069,0.7377 L111.0069,0.7377 C90.4019,2.5097 74.5549,17.5277 75.7899,34.1117 L83.0289,118.2317 C83.0289,118.2317 81.7919,153.6777 106.0439,162.8707 C132.2969,172.8237 241.3069,165.5027 320.0279,158.3457 L320.0279,106.0487 L157.3969,104.5427 Z" id="Fill-175" fill="#008C98"></path>
                <path d="M583.1664,414.3276 L537.9144,416.9496 L537.9144,216.7506 L538.6084,216.7506 C547.1214,216.7506 554.0224,223.6516 554.0224,232.1646 L583.1664,414.3276 Z" id="Fill-177" fill="#F2F6F5"></path>
                <path d="M570.7172,361.6319 C570.7172,370.1579 564.9782,377.0699 557.8982,377.0699 C550.8182,377.0699 545.0782,370.1579 545.0782,361.6319 C545.0782,353.1059 550.8182,346.1939 557.8982,346.1939 C564.9782,346.1939 570.7172,353.1059 570.7172,361.6319" id="Fill-179" fill="#FFFFFF"></path>
                <path d="M286.4317,330.1632 L0.5387,330.1632 L0.5387,278.9912 L283.2617,278.9912 C285.3027,278.9912 286.9587,280.6472 286.9587,282.6882 L286.9587,329.6362 C286.9587,329.9272 286.7227,330.1632 286.4317,330.1632" id="Fill-181" fill="#A4BBC5"></path>
            </g>
            <g id="Group-186" transform="translate(347.000000, 572.461000)">
                <mask id="mask-36" fill="white">
                    <use xlink:href="#path-35"></use>
                </mask>
                <g id="Clip-185"></g>
                <polygon id="Fill-184" fill="#6F909F" mask="url(#mask-36)" points="-23.483 8.612 347.553 8.612 347.553 -6.802 -23.483 -6.802"></polygon>
            </g>
            <g id="Group-190" transform="translate(246.000000, 622.461000)">
                <polygon id="Fill-187" fill="#6F909F" points="121.159 8.41 364.312 8.41 364.312 0.74 121.159 0.74"></polygon>
                <path d="M0.3192,230.643 C0.3192,148.366 67.0182,81.668 149.2942,81.668 C231.5712,81.668 298.2702,148.366 298.2702,230.643" id="Fill-189" fill="#F2F6F5"></path>
            </g>
            <g id="Group-193" transform="translate(246.000000, 707.461000)">
                <mask id="mask-38" fill="white">
                    <use xlink:href="#path-37"></use>
                </mask>
                <g id="Clip-192"></g>
                <path d="M-30.3626,149.4782 C-30.3626,67.2012 36.3364,0.5032 118.6124,0.5032 C200.8894,0.5032 267.5884,67.2012 267.5884,149.4782" id="Fill-191" fill="#D2DEE3" mask="url(#mask-38)"></path>
            </g>
            <path d="M783.0325,853.104 C783.0325,770.827 849.7315,704.129 932.0075,704.129 C1014.2845,704.129 1080.9835,770.827 1080.9835,853.104" id="Fill-194" fill="#F2F6F5"></path>
            <g id="Group-202" transform="translate(783.000000, 707.461000)">
                <g id="Group-198" transform="translate(223.000000, 108.000000)">
                    <mask id="mask-40" fill="white">
                        <use xlink:href="#path-39"></use>
                    </mask>
                    <g id="Clip-197"></g>
                    <path d="M97.7673,54.0731 L1.5923,54.0731 C0.9933,54.0731 0.5023,53.5821 0.5023,52.9821 L0.5023,3.8231 C0.5023,1.9911 2.0013,0.4911 3.8343,0.4911 L97.7673,0.4911 C98.3673,0.4911 98.8583,0.9821 98.8583,1.5821 L98.8583,52.9821 C98.8583,53.5821 98.3673,54.0731 97.7673,54.0731" id="Fill-196" fill="#D2DEE3" mask="url(#mask-40)"></path>
                </g>
                <g id="Group-201">
                    <mask id="mask-42" fill="white">
                        <use xlink:href="#path-41"></use>
                    </mask>
                    <g id="Clip-200"></g>
                    <path d="M-30.6494,149.4782 C-30.6494,67.2012 36.0496,0.5032 118.3256,0.5032 C200.6026,0.5032 267.3016,67.2012 267.3016,149.4782" id="Fill-199" fill="#D2DEE3" mask="url(#mask-42)"></path>
                </g>
            </g>
            <g id="Group-230" transform="translate(209.000000, 0.461000)">
                <g id="Group-205" transform="translate(301.000000, 0.000000)">
                    <mask id="mask-44" fill="white">
                        <use xlink:href="#path-43"></use>
                    </mask>
                    <g id="Clip-204"></g>
                    <path d="M137.162,0.8337 C278.923,-6.1933 274.053,114.6037 274.053,114.6037 L129.822,110.1997 C79.91,110.1997 76.974,176.2587 76.974,176.2587 C68.9,234.9787 3.574,225.0697 3.574,225.0697 C3.574,225.0697 -33.125,9.2747 137.162,0.8337" id="Fill-203" fill="#FFFFFF" mask="url(#mask-44)"></path>
                </g>
                <path d="M327.0424,227.8006 C317.5414,227.8006 310.7284,225.8616 310.2014,225.7076 C307.5754,224.9366 306.0714,222.1836 306.8414,219.5586 C307.6104,216.9366 310.3574,215.4346 312.9794,216.1946 C313.1864,216.2556 333.9864,222.0686 352.0514,211.5656 C364.0954,204.5606 372.4324,191.8296 376.8334,173.7246 C377.1964,171.5506 380.2504,154.3476 388.5614,137.1196 C400.5944,112.1756 417.8494,99.4896 438.4314,100.3986 L588.0914,104.7996 C590.8264,104.8806 592.9784,109.0346 592.8984,111.7686 C592.8194,114.4546 590.6164,118.4486 587.9484,118.4486 L587.8004,118.4486 L438.0654,112.1726 C421.4534,111.4136 407.8854,120.9076 397.5734,142.1806 C389.4574,158.9216 386.6124,175.7886 386.5844,175.9616 C386.5644,176.0876 386.5384,175.9826 386.5084,176.1066 C381.4484,197.0876 371.4954,211.8826 356.9264,220.3096 C346.5454,226.3146 335.6824,227.8006 327.0424,227.8006" id="Fill-206" fill="#6F909F"></path>
                <path d="M379.879,120.1122 C379.879,135.2152 367.635,147.4592 352.532,147.4592 C337.428,147.4592 325.185,135.2152 325.185,120.1122 C325.185,105.0092 337.428,92.7652 352.532,92.7652 C367.635,92.7652 379.879,105.0092 379.879,120.1122" id="Fill-208" fill="#A4BBC5"></path>
                <path d="M224.4386,774.7544 L138.5506,774.7544 C138.2506,774.7544 138.0056,774.5094 138.0056,774.2094 L138.0056,762.0874 C138.0056,761.7874 138.2506,761.5424 138.5506,761.5424 L224.4386,761.5424 C224.7386,761.5424 224.9836,761.7874 224.9836,762.0874 L224.9836,774.2094 C224.9836,774.5094 224.7386,774.7544 224.4386,774.7544" id="Fill-210" fill="#F2F6F5"></path>
                <path d="M224.4386,793.8384 L138.5506,793.8384 C138.2506,793.8384 138.0056,793.5934 138.0056,793.2934 L138.0056,781.1714 C138.0056,780.8714 138.2506,780.6264 138.5506,780.6264 L224.4386,780.6264 C224.7386,780.6264 224.9836,780.8714 224.9836,781.1714 L224.9836,793.2934 C224.9836,793.5934 224.7386,793.8384 224.4386,793.8384" id="Fill-212" fill="#F2F6F5"></path>
                <path d="M224.4386,812.9223 L138.5506,812.9223 C138.2506,812.9223 138.0056,812.6773 138.0056,812.3773 L138.0056,800.2553 C138.0056,799.9553 138.2506,799.7103 138.5506,799.7103 L224.4386,799.7103 C224.7386,799.7103 224.9836,799.9553 224.9836,800.2553 L224.9836,812.3773 C224.9836,812.6773 224.7386,812.9223 224.4386,812.9223" id="Fill-214" fill="#F2F6F5"></path>
                <polygon id="Fill-216" fill="#A4BBC5" points="573.633 852.558 838.973 852.558 838.973 837.144 573.633 837.144"></polygon>
                <polygon id="Fill-218" fill="#A4BBC5" points="38.549 852.558 303.889 852.558 303.889 837.144 38.549 837.144"></polygon>
                <path d="M274.1236,267.4892 L176.3906,267.4892 C176.2906,267.4892 176.2086,267.4072 176.2086,267.3072 L176.2086,263.2672 C176.2086,263.1672 176.2906,263.0852 176.3906,263.0852 L274.1236,263.0852 C274.2236,263.0852 274.3056,263.1672 274.3056,263.2672 L274.3056,267.3072 C274.3056,267.4072 274.2236,267.4892 274.1236,267.4892" id="Fill-219" fill="#EEE2E5"></path>
                <path d="M139.2954,296.6553 L25.9734,296.6553 C25.8734,296.6553 25.7914,296.5733 25.7914,296.4733 L25.7914,292.4333 C25.7914,292.3333 25.8734,292.2513 25.9734,292.2513 L139.2954,292.2513 C139.3954,292.2513 139.4774,292.3333 139.4774,292.4333 L139.4774,296.4733 C139.4774,296.5733 139.3954,296.6553 139.2954,296.6553" id="Fill-220" fill="#EEE2E5"></path>
                <path d="M208.6671,342.5117 L91.8681,342.5117 C91.7681,342.5117 91.6861,342.4297 91.6861,342.3297 L91.6861,338.2897 C91.6861,338.1897 91.7681,338.1077 91.8681,338.1077 L208.6671,338.1077 C208.7671,338.1077 208.8491,338.1897 208.8491,338.2897 L208.8491,342.3297 C208.8491,342.4297 208.7671,342.5117 208.6671,342.5117" id="Fill-221" fill="#EEE2E5"></path>
                <path d="M195.7315,245.3391 L93.6195,245.3391 C93.5195,245.3391 93.4375,245.2571 93.4375,245.1571 L93.4375,241.1171 C93.4375,241.0171 93.5195,240.9351 93.6195,240.9351 L195.7315,240.9351 C195.8315,240.9351 195.9135,241.0171 195.9135,241.1171 L195.9135,245.1571 C195.9135,245.2571 195.8315,245.3391 195.7315,245.3391" id="Fill-222" fill="#EEE2E5"></path>
                <path d="M186.6287,427.5739 L93.1557,427.5739 C93.0557,427.5739 92.9737,427.4919 92.9737,427.3919 L92.9737,423.3519 C92.9737,423.2519 93.0557,423.1699 93.1557,423.1699 L186.6287,423.1699 C186.7287,423.1699 186.8107,423.2519 186.8107,423.3519 L186.8107,427.3919 C186.8107,427.4919 186.7287,427.5739 186.6287,427.5739" id="Fill-223" fill="#EEE2E5"></path>
                <path d="M61.7421,396.4332 L1.0001,396.4332 C0.9001,396.4332 0.8181,396.3512 0.8181,396.2512 L0.8181,392.2112 C0.8181,392.1112 0.9001,392.0292 1.0001,392.0292 L61.7421,392.0292 C61.8421,392.0292 61.9241,392.1112 61.9241,392.2112 L61.9241,396.2512 C61.9241,396.3512 61.8421,396.4332 61.7421,396.4332" id="Fill-224" fill="#EEE2E5"></path>
                <path d="M361.2666,119.7411 C361.2666,127.7691 354.7586,134.2771 346.7306,134.2771 C338.7026,134.2771 332.1936,127.7691 332.1936,119.7411 C332.1936,111.7131 338.7026,105.2051 346.7306,105.2051 C354.7586,105.2051 361.2666,111.7131 361.2666,119.7411" id="Fill-225" fill="#FFFFFF"></path>
                <path d="M516.4897,244.106 C516.4897,264.398 493.3707,280.849 464.8517,280.849 C436.3327,280.849 413.2137,264.398 413.2137,244.106 C413.2137,223.813 436.3327,207.363 464.8517,207.363 C493.3707,207.363 516.4897,223.813 516.4897,244.106" id="Fill-226" fill="#882D28"></path>
                <path d="M495.491,243.8787 C495.491,252.7757 482.834,259.9887 467.222,259.9887 C451.609,259.9887 438.952,252.7757 438.952,243.8787 C438.952,234.9817 451.609,235.8317 467.222,235.8317 C482.834,235.8317 495.491,234.9817 495.491,243.8787" id="Fill-227" fill="#F7C19F"></path>
                <path d="M454.89,245.3417 C461.67,254.8857 474.891,255.8787 482.615,246.8187 C484.188,244.9747 481.522,242.2847 479.939,244.1427 C473.923,251.1977 463.642,251.1487 458.159,243.4307 C456.759,241.4617 453.475,243.3497 454.89,245.3417" id="Fill-228" fill="#882D28"></path>
                <path d="M486.6973,74.7736 C486.6973,74.7926 486.6983,74.8116 486.6983,74.8306 C487.3243,74.7996 487.9593,74.8256 488.5753,74.7286 C490.7653,74.3826 491.6873,73.0106 490.9013,70.9506 C489.7403,67.9086 488.4053,64.9336 487.1423,61.9306 C487.0863,61.7966 487.0553,61.6106 486.8803,61.6006 C486.6503,61.5886 486.6223,61.8106 486.5533,61.9656 C486.2733,62.5936 485.9953,63.2216 485.7223,63.8526 C484.7373,66.1296 483.7283,68.3966 482.7773,70.6876 C481.8463,72.9316 482.7703,74.4836 485.1743,74.7646 C485.6753,74.8236 486.1893,74.7736 486.6973,74.7736 M510.2783,73.4496 C516.5753,64.0476 516.4523,48.4296 504.9653,38.4516 C494.1623,29.0676 477.9433,29.6196 467.7703,39.8636 C457.4553,50.2496 458.3273,65.0006 463.7303,73.0206 C463.8083,72.8706 463.8893,72.7486 463.9403,72.6156 C467.5783,63.2186 471.2153,53.8226 474.8453,44.4226 C475.2603,43.3486 475.7953,42.3656 476.6533,41.5726 C477.9943,40.3326 479.8383,40.3086 481.2013,41.5156 C482.0523,42.2686 482.6043,43.2186 483.0403,44.2446 C484.0663,46.6676 485.0803,49.0956 486.1053,51.5186 C486.3303,52.0516 486.5763,52.5746 486.8743,53.2386 C487.0343,52.9446 487.1123,52.8236 487.1683,52.6936 C488.2873,50.1156 489.4003,47.5346 490.5223,44.9586 C490.9523,43.9726 491.3533,42.9726 492.0093,42.1026 C493.7383,39.8116 496.4243,39.8386 498.0833,42.1716 C498.5203,42.7846 498.8563,43.4526 499.1233,44.1526 C501.8813,51.3886 504.6353,58.6266 507.3903,65.8636 C508.3353,68.3466 509.2803,70.8286 510.2783,73.4496 M487.5223,86.5036 C488.1883,86.5646 489.2503,86.3146 490.3253,86.2866 C490.5043,86.2816 490.6823,86.2516 490.8603,86.2256 C497.3463,85.2716 502.7913,82.3576 507.2863,77.5926 C507.9593,76.8796 508.0843,76.3036 507.7303,75.3906 C504.8923,68.0576 502.1053,60.7046 499.3003,53.3586 C498.2123,50.5086 497.1313,47.6576 496.0193,44.8176 C495.8283,44.3306 495.6183,43.6586 495.0563,43.6206 C494.4533,43.5786 494.3253,44.3106 494.0323,44.7396 C493.9323,44.8856 493.8663,45.0576 493.7943,45.2216 C492.1883,48.9246 490.5953,52.6326 488.9663,56.3256 C488.6643,57.0106 488.6753,57.5986 488.9703,58.2846 C490.5903,62.0476 492.2253,65.8046 493.7473,69.6066 C495.3593,73.6306 493.2963,77.1326 489.0153,77.7916 C487.6493,78.0026 486.2653,77.9526 484.8983,77.8426 C483.3473,77.7176 481.8983,77.2186 480.8053,76.0366 C478.9933,74.0766 478.9833,71.8006 479.9263,69.5036 C481.5043,65.6596 483.1923,61.8606 484.8423,58.0466 C485.0243,57.6256 485.1763,57.2366 484.9743,56.7636 C483.3073,52.8596 481.6623,48.9456 479.9853,45.0456 C479.7803,44.5686 479.5593,43.9126 478.9633,43.9046 C478.3483,43.8956 478.2083,44.5796 477.9643,45.0456 C477.8673,45.2306 477.7893,45.4266 477.7143,45.6216 C473.8753,55.5486 470.0423,65.4786 466.1883,75.4006 C465.9383,76.0436 466.0023,76.5176 466.4613,77.0276 C471.9783,83.1656 478.8483,86.3356 487.5223,86.5036 M517.4973,59.1996 C517.7053,75.7106 503.9473,89.6396 486.9983,89.5836 C470.1093,89.5286 456.4043,75.4176 456.7003,58.5796 C456.9823,42.5286 470.2913,28.4786 487.5693,28.6936 C504.1233,28.9006 517.7563,42.6676 517.4973,59.1996" id="Fill-229" fill="#00ABC1"></path>
            </g>
        </g>
    </g>
</svg>